# xmcd CD database file
#
# Track frame offsets:
#	150
#	21827
#	38830
#	48752
#	57690
#	68990
#	84620
#	103087
#	116695
#	131337
#	144245
#	156890
#	169427
#	186695
#	201297
#	213535
#
# Disc length: 3028 seconds
#
# Revision: 0
# Processed by: cddbd v1.5.2PL0 Copyright (c) Steve Scherf et al.
# Submitted via: CDex 1.51
#
DISCID=f40bd210
DTITLE=Jonny Hill - Star Collection
DYEAR=1900
DGENRE=Country
TTITLE0=Ruf Teddybär eins-vier
TTITLE1=Rosen für Mama
TTITLE2=Komm in meine Welt
TTITLE3=Ein Ring aus Feuer
TTITLE4=tennessee-Walz
TTITLE5=Lucille
TTITLE6=Sylvia´s Mutter
TTITLE7=Vaya con dios
TTITLE8=Nur noch einmal nach Hause
TTITLE9=Mein Lied für dich
TTITLE10=Kann Liebe alles verzeihn
TTITLE11=500 Meilen von zuhaus
TTITLE12=Mal bist du traurig, mal bist du froh
TTITLE13=Wie heisßt deine Mama
TTITLE14=der Zug, der heimwärts fährt
TTITLE15=Ich lösche das Licht aus
EXTD=
EXTT0=
EXTT1=
EXTT2=
EXTT3=
EXTT4=
EXTT5=
EXTT6=
EXTT7=
EXTT8=
EXTT9=
EXTT10=
EXTT11=
EXTT12=
EXTT13=
EXTT14=
EXTT15=
PLAYORDER=
